<?xml version="1.0" encoding="utf-8"?>
<!-- Generator: Adobe Illustrator 21.1.0, SVG Export Plug-In . SVG Version: 6.00 Build 0)  -->
<svg version="1.1" id="Layer_1" xmlns="http://www.w3.org/2000/svg" xmlns:xlink="http://www.w3.org/1999/xlink" x="0px" y="0px"
	 viewBox="0 0 80 80" style="enable-background:new 0 0 80 80;" xml:space="preserve">
<style type="text/css">
	.st0{fill:#0979BE;}
	.st1{fill:#FFFFFF;}
</style>
<g>
	<circle class="st0" cx="40" cy="40" r="40"/>
	<path class="st1" d="M64.3,12.8H30.3c-0.5,0-1,0.2-1.3,0.6L14.3,28c-0.4,0.4-0.6,0.8-0.6,1.3v34.1c0,1,0.8,1.9,1.9,1.9h34.1
		c0.5,0,1-0.2,1.3-0.6l14.6-14.6c0.4-0.4,0.6-0.8,0.6-1.3V14.7C66.2,13.7,65.4,12.8,64.3,12.8z M32.1,27.4V16.6h27.7L49,27.4H32.1z
		 M32.1,46.9V31.2h15.7v15.7H32.1z M20.2,61.5L31,50.6h16.8v10.8H20.2z M17.5,58.8V31.2h10.8V48L17.5,58.8z M20.2,27.4l8.2-8.2v8.2
		H20.2z M62.5,19.2v27.7H51.6V30.1L62.5,19.2z M59.8,50.6l-8.2,8.2v-8.2H59.8z"/>
</g>
</svg>
