<?xml version="1.0" encoding="utf-8"?>
<!-- Generator: Adobe Illustrator 21.1.0, SVG Export Plug-In . SVG Version: 6.00 Build 0)  -->
<svg version="1.1" id="Layer_1" xmlns="http://www.w3.org/2000/svg" xmlns:xlink="http://www.w3.org/1999/xlink" x="0px" y="0px"
	 viewBox="0 0 80 80" style="enable-background:new 0 0 80 80;" xml:space="preserve">
<style type="text/css">
	.st0{fill:#0979BE;}
	.st1{fill:#FFFFFF;stroke:#0979BE;stroke-width:2;stroke-miterlimit:10;}
</style>
<g>
	<circle class="st0" cx="40" cy="40" r="40"/>
	<g>
		<path class="st1" d="M61.1,29.5c-2.8,0-5.4,2.3-5.4,5.1v8.1v0.5v3.5c0,1.2-0.5,2.5-1.6,2.5H26.3c-1.2,0-2.7-1.3-2.7-2.5v-3.5v-0.5
			v-8.1c0-2.8-2-5.1-4.9-5.1s-5,2.3-5,5.1c0,2,0.9,3.7,2.6,4.6c0.2,0.1,0.2,0.4,0.2,0.7v9.3c0,1.9,1.2,3.5,2.9,4.2V57
			c0,1.2,1.6,2.6,2.8,2.6h36.1c1.2,0,1.6-1.4,1.6-2.6v-3.5c1.6-0.7,2.9-2.3,2.9-4.2V40c0-0.3,0.4-0.6,0.7-0.7
			c1.8-0.9,2.8-2.6,2.8-4.6C66.3,31.8,63.9,29.5,61.1,29.5z"/>
		<path class="st1" d="M25.2,34.6v6c0,0.4,0.5,0.4,1.2,0.3h27.5c0.2,0,0.1-0.4,0.1-0.3v-6c0-3.4,2.5-6.3,5.8-6.7v-1.7
			c0-4.1-2.8-7-6.8-7H27.4c-4.1,0-8,2.9-8,7v1.7C22.7,28.4,25.2,31.2,25.2,34.6z"/>
		<path class="st1" d="M26.3,42.6c-0.2,0-1.1,0-1.1,0.2v0.4v3.5c0,0.9,0,0.9,1.1,0.9h27.3c0.4,0,0.4,0,0.4-0.9v-3.5v-0.5
			c0-0.2-0.3-0.2-0.6-0.2L26.3,42.6L26.3,42.6z"/>
	</g>
</g>
</svg>
