<?xml version="1.0" encoding="utf-8"?>
<!-- Generator: Adobe Illustrator 21.1.0, SVG Export Plug-In . SVG Version: 6.00 Build 0)  -->
<svg version="1.1" id="Layer_1" xmlns="http://www.w3.org/2000/svg" xmlns:xlink="http://www.w3.org/1999/xlink" x="0px" y="0px"
	 viewBox="0 0 80 80" style="enable-background:new 0 0 80 80;" xml:space="preserve">
<style type="text/css">
	.st0{fill:#FFFFFF;}
	.st1{fill:#0979BE;}
</style>
<g>
	<path class="st0" d="M40,0C17.9,0,0,17.9,0,40c0,3.6,0.5,7,1.3,10.3C3.2,57.3,7,63.6,12,68.6C19.2,75.6,29.1,80,40,80
		c22.1,0,40-17.9,40-40C80,17.9,62.1,0,40,0z"/>
	<g>
		<path class="st1" d="M40,0C17.9,0,0,17.9,0,40c0,3.6,0.5,7,1.3,10.3C3.2,57.3,7,63.6,12,68.6c1.2,1.2,2.5,2.3,3.8,3.3V59
			c0-0.5,0.4-1,1-1h7.1c0.5,0,1,0.4,1,1v18c1.6,0.7,3.3,1.2,5.1,1.7V45.3c0-0.5,0.4-1,1-1h1.7c0.5,4.4,2.9,8.3,6.4,10.8V80
			c0.3,0,0.7,0,1,0c1.4,0,2.7-0.1,4.1-0.2V57.5c1.3,0.3,2.6,0.5,3.9,0.5c1.7,0,3.5-0.3,5.1-0.9v20.7c1.8-0.6,3.4-1.3,5.1-2.2V59.4
			l6.1,5.8c0.8,0.8,1.8,1.3,2.9,1.4v2.8C75.1,62,80,51.6,80,40C80,17.9,62.1,0,40,0z M62.8,37.8h3.4c0.5,0,1,0.4,1,1v15.6l-5.3-5
			c1-2.1,1.6-4.4,1.6-6.8C63.5,40.8,63.3,39.3,62.8,37.8z M46.8,15.8c-0.9,0-1.6-0.7-1.6-1.6c0-0.9,0.7-1.6,1.6-1.6l9.5,0
			c0,0,0.1,0,0.1,0c0.1,0,0.1,0,0.2,0c0.1,0,0.1,0,0.1,0c0.1,0,0.1,0,0.2,0.1l0.1,0.1c0.1,0,0.1,0.1,0.2,0.1l0.1,0.1
			c0,0,0.1,0.1,0.1,0.1c0,0,0.1,0.1,0.1,0.1c0,0,0.1,0.1,0.1,0.1c0,0.1,0.1,0.1,0.1,0.2c0,0,0,0.1,0.1,0.1c0,0.1,0,0.1,0.1,0.2
			c0,0.1,0,0.1,0,0.1c0,0.1,0,0.1,0,0.2l0,0.1v11.5c0,0.9-0.7,1.6-1.6,1.6s-1.6-0.7-1.6-1.6V19l-6,7.9c-0.3,0-0.6,0-0.9,0
			c-1.2,0-2.3,0.1-3.5,0.4l8.8-11.6H46.8z M27.2,30.5L13.9,44.1c-0.3,0.3-0.7,0.5-1.2,0.5c-0.4,0-0.8-0.2-1.2-0.5
			c-0.6-0.6-0.7-1.7,0-2.3l14.1-14.4c0.5-0.5,1.2-0.6,1.8-0.4l9.7,4c-0.9,0.8-1.6,1.7-2.3,2.6L27.2,30.5z M67.7,63.3
			c-0.4,0-0.9-0.2-1.2-0.5L55.4,52.2c-2.1,1.6-4.7,2.5-7.4,2.5c-6.7,0-12.2-5.5-12.2-12.2c0-6.7,5.5-12.2,12.2-12.2
			c6.7,0,12.2,5.5,12.2,12.2c0,2.7-0.9,5.3-2.5,7.4l11.1,10.6c0.3,0.3,0.5,0.7,0.5,1.2c0,0.4-0.2,0.9-0.5,1.2
			C68.6,63.1,68.2,63.3,67.7,63.3z"/>
		<path class="st1" d="M48,33.2c-5.1,0-9.3,4.2-9.3,9.3c0,5.1,4.2,9.3,9.3,9.3c5.1,0,9.3-4.2,9.3-9.3C57.3,37.3,53.1,33.2,48,33.2z"
			/>
	</g>
</g>
</svg>
