<?xml version="1.0" encoding="utf-8"?>
<!-- Generator: Adobe Illustrator 21.1.0, SVG Export Plug-In . SVG Version: 6.00 Build 0)  -->
<svg version="1.1" id="Layer_1" xmlns="http://www.w3.org/2000/svg" xmlns:xlink="http://www.w3.org/1999/xlink" x="0px" y="0px"
	 viewBox="0 0 80 80" style="enable-background:new 0 0 80 80;" xml:space="preserve">
<style type="text/css">
	.st0{fill:#FFFFFF;}
	.st1{fill:#0979BE;}
</style>
<g>
	<path class="st0" d="M40,0C17.9,0,0,17.9,0,40c0,3.6,0.5,7,1.3,10.3C3.3,57.3,7,63.6,12,68.5C19.2,75.6,29.1,80,40,80
		c22.1,0,40-17.9,40-40C80,17.9,62.1,0,40,0z"/>
	<g>
		<path class="st1" d="M56.7,26.4H49c-0.2,2.4-0.7,4.8-1.6,7.2h7C55.7,31.5,56.5,29,56.7,26.4z"/>
		<path class="st1" d="M54.5,17H48c0.7,2.3,1.1,4.7,1.2,7.2h7.6C56.6,21.5,55.8,19.1,54.5,17z"/>
		<path class="st1" d="M43.9,9.3c1.3,1.7,2.4,3.5,3.2,5.4h5.8C50.6,12,47.5,10,43.9,9.3z"/>
		<path class="st1" d="M40.4,8.9c-0.1,0-0.2,0-0.2,0c-1.6,1.8-3,3.8-4,5.8h8.4c-1-2-2.3-4-4-5.8C40.5,8.9,40.4,8.9,40.4,8.9z"/>
		<path class="st1" d="M45.1,33.6c0.9-2.4,1.5-4.8,1.7-7.2H33.9c0.2,2.4,0.8,4.8,1.7,7.2H45.1z"/>
		<path class="st1" d="M45.6,17H35.2c-0.8,2.3-1.3,4.7-1.3,7.2h13C46.8,21.7,46.4,19.3,45.6,17z"/>
		<path class="st1" d="M52.8,35.9h-6.3c-0.8,1.8-1.8,3.7-3,5.5C47.2,40.7,50.5,38.7,52.8,35.9z"/>
		<path class="st1" d="M37.2,41.4c-1.2-1.8-2.2-3.7-3-5.5h-6.2C30.3,38.7,33.5,40.7,37.2,41.4z"/>
		<path class="st1" d="M40.3,41.7c0.1,0,0.1,0,0.2,0c1.4-1.9,2.6-3.9,3.5-5.8h-7.4c0.9,1.9,2.1,3.9,3.5,5.8
			C40.2,41.7,40.3,41.7,40.3,41.7z"/>
		<path class="st1" d="M27.6,14.7h6.1c0.8-1.9,1.9-3.7,3.2-5.5C33.1,10,29.9,11.9,27.6,14.7z"/>
		<path class="st1" d="M40,0C17.9,0,0,17.9,0,40c0,10.1,3.8,19.4,10,26.5c0.4-4,3.1-7.5,6.6-9.2c-1.8-1.4-2.9-3.5-2.9-6
			c0-4.2,3.4-7.6,7.6-7.6s7.6,3.4,7.6,7.6c0,2.4-1.1,4.5-2.9,5.9c1.9,0.9,3.5,2.3,4.7,4c1.2-1.8,2.8-3.1,4.7-4
			c-1.8-1.4-2.9-3.5-2.9-5.9c0-3.7,2.6-6.7,6.1-7.4c-9.5-0.9-16.9-9.1-16.9-19c0-10,7.7-17.9,17.9-18.3c0.3,0,0.5,0,0.8,0
			c10.3,0,18.7,8.4,18.7,18.7c0,9.9-7.7,18-17.4,18.7c3.4,0.8,5.9,3.8,5.9,7.4c0,2.4-1.1,4.6-2.9,5.9c1.9,0.9,3.5,2.2,4.7,4
			c1.2-1.8,2.8-3.1,4.7-4c-1.8-1.4-2.9-3.5-2.9-5.9c0-4.2,3.4-7.6,7.6-7.6s7.6,3.4,7.6,7.6c0,2.4-1.2,4.6-2.9,6
			c3.6,1.7,6.2,5.2,6.6,9.2c6.2-7,10-16.3,10-26.5C80,17.9,62.1,0,40,0z"/>
		<path class="st1" d="M23.9,24.1h7.7c0-2.4,0.4-4.8,1.2-7.2H26C24.8,19.1,24.1,21.5,23.9,24.1z"/>
		<path class="st1" d="M33.2,33.6c-0.8-2.4-1.4-4.8-1.6-7.2H24c0.2,2.6,1,5,2.3,7.2H33.2z"/>
	</g>
</g>
</svg>
