<?xml version="1.0" encoding="utf-8"?>
<!-- Generator: Adobe Illustrator 21.1.0, SVG Export Plug-In . SVG Version: 6.00 Build 0)  -->
<svg version="1.1" id="Layer_1" xmlns="http://www.w3.org/2000/svg" xmlns:xlink="http://www.w3.org/1999/xlink" x="0px" y="0px"
	 viewBox="0 0 80 80" style="enable-background:new 0 0 80 80;" xml:space="preserve">
<style type="text/css">
	.st0{fill:#FFFFFF;}
	.st1{fill:#0979BE;}
</style>
<g>
	<path class="st0" d="M40,0C17.9,0,0,17.9,0,40c0,3.6,0.5,7,1.3,10.3C3.2,57.3,7,63.6,12,68.6C19.2,75.6,29.1,80,40,80
		c22.1,0,40-17.9,40-40C80,17.9,62.1,0,40,0z"/>
	<g>
		<polygon class="st1" points="31.8,16.2 31.8,27.7 49.1,27.7 60.6,16.2 		"/>
		<polygon class="st1" points="19.4,61.8 48.2,61.8 48.2,50.3 30.9,50.3 		"/>
		<rect x="31.8" y="30.8" class="st1" width="16.4" height="16.4"/>
		<polygon class="st1" points="28.7,18.4 19.4,27.7 28.7,27.7 		"/>
		<polygon class="st1" points="28.7,30.8 17.2,30.8 17.2,59.6 28.7,48.1 		"/>
		<polygon class="st1" points="51.3,59.6 60.6,50.3 51.3,50.3 		"/>
		<path class="st1" d="M40,0C17.9,0,0,17.9,0,40c0,22.1,17.9,40,40,40s40-17.9,40-40C80,17.9,62.1,0,40,0z M65.9,48.7
			c0,0.4-0.2,0.8-0.5,1.1L50.8,64.4c-0.3,0.3-0.7,0.5-1.1,0.5H15.7c-0.9,0-1.5-0.7-1.5-1.5V29.3c0-0.4,0.2-0.8,0.5-1.1l14.6-14.6
			c0.3-0.3,0.7-0.5,1.1-0.5h34.1c0.9,0,1.5,0.7,1.5,1.5V48.7z"/>
		<polygon class="st1" points="51.3,47.2 62.8,47.2 62.8,18.4 51.3,29.9 		"/>
	</g>
</g>
</svg>
