<?xml version="1.0" encoding="utf-8"?>
<!-- Generator: Adobe Illustrator 21.1.0, SVG Export Plug-In . SVG Version: 6.00 Build 0)  -->
<svg version="1.1" id="Layer_1" xmlns="http://www.w3.org/2000/svg" xmlns:xlink="http://www.w3.org/1999/xlink" x="0px" y="0px"
	 viewBox="0 0 80 80" style="enable-background:new 0 0 80 80;" xml:space="preserve">
<style type="text/css">
	.st0{fill:#0979BE;}
	.st1{fill:#FFFFFF;}
</style>
<g>
	<path class="st0" d="M16.7,57.3c-1.8-1.4-2.9-3.5-2.9-6c0-4.2,3.4-7.6,7.6-7.6s7.6,3.4,7.6,7.6c0,2.4-1.1,4.5-2.9,5.9
		c1.9,0.9,3.5,2.3,4.7,4c1.2-1.8,2.8-3.1,4.7-4c-1.8-1.4-2.9-3.5-2.9-5.9c0-3.8,2.9-7,6.6-7.5c-9.2-0.5-16.6-8.3-16.6-17.9
		c0-9.4,7.2-16.8,16.8-17.2c0.3,0,0.5,0,0.8,0c9.7,0,17.5,7.8,17.5,17.5c0,9.4-7.3,17-16.6,17.6c3.7,0.5,6.6,3.7,6.6,7.5
		c0,2.4-1.1,4.6-2.9,5.9c1.9,0.9,3.5,2.3,4.7,4c1.2-1.8,2.8-3.1,4.7-4c-1.8-1.4-2.9-3.5-2.9-5.9c0-4.2,3.4-7.6,7.6-7.6
		s7.6,3.4,7.6,7.6c0,2.4-1.2,4.6-2.9,6c3.6,1.7,6.2,5.2,6.6,9.2c6.2-7.1,10-16.3,10-26.5C80,17.9,62.1,0,40,0C17.9,0,0,17.9,0,40
		c0,10.2,3.8,19.4,10,26.5C10.4,62.5,13.1,59,16.7,57.3z"/>
	<path class="st0" d="M48.3,25h6.5c-0.2-2.2-0.9-4.3-1.9-6.1h-5.6C48,20.9,48.3,22.9,48.3,25z"/>
	<path class="st0" d="M46.9,33.8h6c1.1-1.8,1.7-3.9,1.9-6.1h-6.6C48.1,29.7,47.6,31.7,46.9,33.8z"/>
	<path class="st0" d="M51,16.3c-1.9-2.1-4.4-3.6-7.1-4.3c1,1.4,1.8,2.8,2.5,4.3H51z"/>
	<path class="st0" d="M44.2,33.8c0.8-2.1,1.3-4.1,1.5-6.1H34.4c0.2,2,0.7,4.1,1.5,6.1H44.2z"/>
	<path class="st0" d="M43.5,40.8c2.9-0.7,5.5-2.3,7.5-4.4h-5.1C45.2,37.9,44.4,39.4,43.5,40.8z"/>
	<path class="st0" d="M44.6,18.9h-9.2c-0.7,2-1.1,4-1.1,6.1h11.5C45.7,22.9,45.3,20.9,44.6,18.9z"/>
	<path class="st0" d="M40.1,11.4c0,0-0.1,0-0.1,0c0,0-0.1,0-0.1,0c-1.4,1.5-2.5,3.2-3.4,4.9h6.9C42.6,14.6,41.5,13,40.1,11.4z"/>
	<path class="st0" d="M29.1,36.4c2,2.2,4.5,3.7,7.4,4.4c-0.9-1.5-1.7-3-2.4-4.4H29.1z"/>
	<path class="st0" d="M40,41.2c1.2-1.6,2.2-3.2,3-4.9h-6C37.8,38,38.8,39.6,40,41.2C40,41.2,40,41.2,40,41.2z"/>
	<path class="st0" d="M36.2,11.9c-2.9,0.7-5.5,2.3-7.4,4.4h4.9C34.3,14.8,35.1,13.3,36.2,11.9z"/>
	<path class="st0" d="M31.8,27.7h-6.6c0.2,2.2,0.9,4.3,2,6.1h5.9C32.4,31.7,31.9,29.7,31.8,27.7z"/>
	<path class="st0" d="M32.6,18.9h-5.8c-1,1.8-1.6,3.9-1.8,6.1h6.5C31.7,22.9,32,20.9,32.6,18.9z"/>
	<path class="st1" d="M40,80c11.9,0,22.6-5.2,30-13.5c-0.4-4-3.1-7.5-6.6-9.2c1.8-1.4,3-3.6,2.9-6c0-4-3.3-7.3-7.3-7.5
		c-4.3-0.2-7.9,3.3-7.9,7.6c0,2.4,1.1,4.5,2.9,5.9c-1.9,0.9-3.5,2.3-4.7,4c-1.2-1.8-2.8-3.1-4.7-4c1.8-1.4,2.9-3.5,2.9-5.9
		c0-3.8-2.9-7-6.6-7.5c9.2-0.5,16.6-8.2,16.6-17.6c0-9.6-7.9-17.5-17.5-17.5c-0.3,0-0.5,0-0.8,0C29.7,9.2,22.5,16.6,22.5,26
		c0,9.5,7.3,17.4,16.6,17.9c-3.7,0.5-6.6,3.7-6.6,7.5c0,2.4,1.1,4.6,2.9,5.9c-1.9,0.9-3.5,2.3-4.7,4c-1.2-1.8-2.8-3.1-4.7-4
		c1.8-1.4,2.9-3.6,2.9-6c0-4-3.3-7.3-7.2-7.5c-4.3-0.2-7.9,3.3-7.9,7.6c0,2.4,1.2,4.6,2.9,6c-3.6,1.7-6.2,5.2-6.6,9.2
		C17.4,74.8,28.1,80,40,80z M43.5,40.8c0.9-1.5,1.7-2.9,2.4-4.4H51C49,38.5,46.4,40.1,43.5,40.8z M45.7,27.7c-0.2,2-0.7,4.1-1.5,6.1
		h-8.3c-0.8-2.1-1.3-4.1-1.5-6.1H45.7z M34.3,25c0.1-2.1,0.4-4.1,1.1-6.1h9.2c0.7,2,1.1,4,1.1,6.1H34.3z M52.9,33.8h-6
		c0.7-2,1.1-4.1,1.3-6.1h6.6C54.6,29.9,54,31.9,52.9,33.8z M52.9,18.9c1.1,1.8,1.7,3.9,1.9,6.1h-6.5c0-2.1-0.4-4.1-1-6.1H52.9z
		 M51,16.3h-4.6c-0.7-1.5-1.5-2.9-2.5-4.3C46.7,12.7,49.1,14.2,51,16.3z M39.9,11.4c0,0,0.1,0,0.1,0c0,0,0.1,0,0.1,0
		c1.4,1.5,2.5,3.2,3.4,4.9h-6.9C37.4,14.6,38.5,13,39.9,11.4z M36.2,11.9c-1,1.4-1.9,2.9-2.5,4.4h-4.9
		C30.7,14.2,33.2,12.6,36.2,11.9z M26.9,18.9h5.8c-0.6,2-0.9,4-1,6.1h-6.5C25.3,22.8,25.9,20.7,26.9,18.9z M27.2,33.8
		c-1.1-1.8-1.8-3.9-2-6.1h6.6c0.2,2,0.6,4.1,1.3,6.1H27.2z M29.1,36.4h5c0.7,1.5,1.5,3,2.4,4.4C33.6,40.1,31.1,38.6,29.1,36.4z
		 M37,36.4h6c-0.8,1.6-1.8,3.2-3,4.9c0,0,0,0,0,0C38.8,39.6,37.8,38,37,36.4z"/>
</g>
</svg>
