<?xml version="1.0" encoding="utf-8"?>
<!-- Generator: Adobe Illustrator 21.1.0, SVG Export Plug-In . SVG Version: 6.00 Build 0)  -->
<svg version="1.1" id="Layer_1" xmlns="http://www.w3.org/2000/svg" xmlns:xlink="http://www.w3.org/1999/xlink" x="0px" y="0px"
	 viewBox="0 0 80 80" style="enable-background:new 0 0 80 80;" xml:space="preserve">
<style type="text/css">
	.st0{fill:#0979BE;}
	.st1{fill:#FFFFFF;stroke:#0979BE;stroke-width:2;stroke-miterlimit:10;}
</style>
<g>
	<circle class="st0" cx="40" cy="40" r="40"/>
	<g id="Filled_Icon">
		<g>
			<path class="st1" d="M64.3,18.9L55,24v24.3l10.8-28.1C66.2,19.3,65.2,18.4,64.3,18.9z"/>
			<path class="st1" d="M52.9,47.8V15.6c0-1-1.2-1.4-1.8-0.8L38.4,27.2C39.7,28.9,38.7,27.5,52.9,47.8z"/>
			<path class="st1" d="M20.9,31.7l-6.4,6.4c-0.7,0.7-0.2,1.8,0.8,1.8h10C24.9,39.5,21.1,32.2,20.9,31.7z"/>
			<path class="st1" d="M33.5,29.2h-9.7c-0.8,0-1.3,0.9-1,1.6l10.7,22.4V29.2z"/>
			<path class="st1" d="M61.4,63.8L37.6,29.7c-0.2-0.3-0.5-0.4-2-0.4v26.9l24.5,9.2C61.1,65.8,62,64.7,61.4,63.8z"/>
		</g>
	</g>
</g>
</svg>
