<?xml version="1.0" encoding="utf-8"?>
<!-- Generator: Adobe Illustrator 21.1.0, SVG Export Plug-In . SVG Version: 6.00 Build 0)  -->
<svg version="1.1" id="Layer_1" xmlns="http://www.w3.org/2000/svg" xmlns:xlink="http://www.w3.org/1999/xlink" x="0px" y="0px"
	 viewBox="0 0 80 80" style="enable-background:new 0 0 80 80;" xml:space="preserve">
<style type="text/css">
	.st0{fill:#0979BE;}
	.st1{fill:#FFFFFF;}
</style>
<g>
	<g>
		<path class="st0" d="M79.5,40C79.5,18.2,61.8,0.5,40,0.5S0.5,18.2,0.5,40c0,12.8,6.1,24.3,15.6,31.5v-8.6c0-0.5,0.4-1,1-1h7
			c0.5,0,1,0.4,1,1v13.7c1.6,0.7,3.3,1.2,5,1.7V48.6c0-0.5,0.4-1,1-1h7c0.5,0,1,0.4,1,1v30.8c0.3,0,0.7,0,1,0c1.4,0,2.7-0.1,4-0.2
			v-25c0-0.5,0.4-1,1-1h7c0.5,0,1,0.4,1,1v23c1.7-0.6,3.4-1.3,5-2.1V34.4c0-0.5,0.4-1,1-1h7c0.5,0,1,0.4,1,1v34.5
			C74.6,61.7,79.5,51.4,79.5,40z"/>
		<path class="st1" d="M65.9,33.4h-7c-0.5,0-1,0.4-1,1v40.8c3.3-1.7,6.3-3.8,8.9-6.2V34.4C66.9,33.9,66.4,33.4,65.9,33.4z"/>
		<path class="st1" d="M51.9,45.6h-7c-0.5,0-1,0.4-1,1v32.8c3.1-0.3,6.1-1,8.9-2V46.5C52.9,46,52.5,45.6,51.9,45.6z"/>
		<path class="st1" d="M38,39.9h-7c-0.5,0-1,0.4-1,1v37.4c2.9,0.7,5.8,1.2,8.9,1.2V40.8C39,40.3,38.6,39.9,38,39.9z"/>
		<path class="st1" d="M24.1,53.4h-7c-0.5,0-1,0.4-1,1v17.1c2.7,2.1,5.7,3.8,8.9,5.1V54.4C25.1,53.9,24.6,53.4,24.1,53.4z"/>
	</g>
	<path class="st1" d="M58,14.4c0-0.1,0-0.1,0-0.2c0,0,0-0.1,0-0.1c0-0.1,0-0.1-0.1-0.2c0-0.1,0-0.1-0.1-0.1c0,0,0-0.1-0.1-0.2
		c0,0-0.1-0.1-0.1-0.1c0,0-0.1-0.1-0.1-0.1c0,0-0.1-0.1-0.1-0.1l-0.1-0.1c0,0-0.1-0.1-0.2-0.1L57.1,13c0,0-0.1,0-0.2-0.1
		c0,0-0.1,0-0.1,0c0,0-0.1,0-0.2,0c0,0-0.1,0-0.1,0l-9.4,0c-0.9,0-1.6,0.7-1.6,1.6s0.7,1.6,1.6,1.6h6L40.8,32.4L28,27.2
		c-0.6-0.3-1.3-0.1-1.8,0.4L12.3,41.8c-0.6,0.6-0.6,1.7,0,2.3c0.3,0.3,0.7,0.5,1.1,0.5c0.4,0,0.9-0.2,1.2-0.5l13.2-13.5l12.9,5.3
		c0.7,0.3,1.5,0.1,1.9-0.5l12.2-16.1v6.5c0,0.9,0.7,1.6,1.6,1.6s1.6-0.7,1.6-1.6V14.5L58,14.4z M57.4,14.4L57.4,14.4L57.4,14.4
		L57.4,14.4z M57.2,13.9L57.2,13.9L57.2,13.9L57.2,13.9z"/>
	<path class="st0" d="M70.8,57.9L70.8,57.9L70.8,57.9l-9.2-8.7c1-2.1,1.6-4.4,1.6-6.7c0-8.4-6.9-15.3-15.3-15.3
		c-8.4,0-15.3,6.9-15.3,15.3c0,8.4,6.9,15.3,15.3,15.3c2.4,0,4.8-0.6,6.9-1.6l9.2,8.7c0.9,0.9,2.1,1.4,3.4,1.4
		c1.3,0,2.5-0.5,3.4-1.4c0.9-0.9,1.4-2.1,1.4-3.4C72.2,60.1,71.7,58.8,70.8,57.9z M47.9,36.9c3.1,0,5.6,2.5,5.6,5.6
		c0,3.1-2.5,5.6-5.6,5.6c-3.1,0-5.6-2.5-5.6-5.6C42.3,39.4,44.8,36.9,47.9,36.9z"/>
	<path class="st1" d="M68.5,60.2l-11-10.5c1.6-2.1,2.5-4.7,2.5-7.3c0-6.7-5.4-12.1-12.1-12.1c-6.7,0-12.1,5.4-12.1,12.1
		c0,6.7,5.4,12.1,12.1,12.1c2.6,0,5.2-0.9,7.3-2.5l11,10.5c0.3,0.3,0.7,0.5,1.1,0.5c0.4,0,0.8-0.2,1.1-0.5c0.3-0.3,0.5-0.7,0.5-1.1
		C69,60.9,68.8,60.5,68.5,60.2z M47.9,33.6c4.9,0,8.8,4,8.8,8.8c0,4.9-4,8.8-8.8,8.8c-4.9,0-8.8-4-8.8-8.8
		C39.1,37.6,43,33.6,47.9,33.6z"/>
</g>
</svg>
