<?xml version="1.0" encoding="utf-8"?>
<!-- Generator: Adobe Illustrator 21.1.0, SVG Export Plug-In . SVG Version: 6.00 Build 0)  -->
<svg version="1.1" id="Layer_1" xmlns="http://www.w3.org/2000/svg" xmlns:xlink="http://www.w3.org/1999/xlink" x="0px" y="0px"
	 viewBox="0 0 80 80" style="enable-background:new 0 0 80 80;" xml:space="preserve">
<style type="text/css">
	.st0{fill:#0979BE;}
	.st1{fill:#FFFFFF;}
</style>
<g>
	<circle class="st0" cx="41.4" cy="34.2" r="6.6"/>
	<path class="st0" d="M40,0.7C18.3,0.7,0.7,18.3,0.7,40c0,3.5,0.5,6.9,1.3,10.1l14,0.5c0.6,0,1.1,0.5,1.1,1.1V67
		c0,0.6-0.5,1.1-1.1,1.1h-3.6c7.1,7,16.8,11.3,27.5,11.3c21.7,0,39.3-17.6,39.3-39.3C79.3,18.3,61.7,0.7,40,0.7z M54.5,65.9H21.7
		c-0.6,0-1.1-0.5-1.1-1.1V53.9c0-0.6,0.5-1.1,1.1-1.1h3.7c3.3,0,6.8,2.5,7.2,2.8c0.4,0.3,2.1,1.6,0,1.5h-4.4c-0.6,0-1.1,0.5-1.1,1.1
		s0.5,1.1,1.1,1.1h18.5c5,1.3,8.9,2.5,8.9,5.5C55.6,65.4,55.1,65.9,54.5,65.9z M59.7,39.7l-4.4,7.6c-0.3,0.5-0.9,0.7-1.5,0.4
		l-2.7-1.6c-1.2,1-2.5,1.9-4.1,2.4v3.2c0,0.6-0.5,1.1-1.1,1.1h-8.7c-0.6,0-1.1-0.5-1.1-1.1v-3.2c-1.5-0.5-2.9-1.3-4.3-2.5L29,47.7
		c-0.5,0.3-1.2,0.1-1.5-0.4l-4.4-7.6c-0.3-0.5-0.1-1.2,0.4-1.5l2.8-1.6c-0.1-0.8-0.2-1.6-0.2-2.4c0-0.8,0.1-1.6,0.2-2.4l-2.8-1.6
		c-0.5-0.3-0.7-1-0.4-1.5l4.4-7.6c0.3-0.5,1-0.7,1.5-0.4l2.8,1.6c1.4-1.1,2.7-1.9,4.3-2.4v-3.2c0-0.6,0.5-1.1,1.1-1.1h8.7
		c0.6,0,1.1,0.5,1.1,1.1v3.2c1.6,0.6,2.9,1.4,4.1,2.4l2.7-1.6c0.5-0.3,1.2-0.1,1.5,0.4l4.4,7.6c0.3,0.5,0.1,1.2-0.4,1.5l-2.8,1.6
		c0.3,1.6,0.3,3.3,0,4.8l2.8,1.6C59.8,38.5,60,39.2,59.7,39.7z"/>
	<path class="st1" d="M59.3,38.2l-2.8-1.6c0.2-1.6,0.3-3.2,0-4.8l2.8-1.6c0.5-0.3,0.7-1,0.4-1.5l-4.4-7.6c-0.3-0.5-1-0.7-1.5-0.4
		l-2.7,1.6c-1.2-1-2.5-1.9-4.1-2.4v-3.2c0-0.6-0.5-1.1-1.1-1.1h-8.7c-0.6,0-1.1,0.5-1.1,1.1v3.2c-1.5,0.5-2.9,1.3-4.3,2.4L29,20.7
		c-0.5-0.3-1.2-0.1-1.5,0.4l-4.4,7.6c-0.3,0.5-0.1,1.2,0.4,1.5l2.8,1.6c-0.1,0.8-0.2,1.6-0.2,2.4c0,0.8,0.1,1.6,0.2,2.4l-2.8,1.6
		c-0.5,0.3-0.7,1-0.4,1.5l4.4,7.6c0.3,0.5,1,0.7,1.5,0.4l2.9-1.6c1.4,1.1,2.7,1.9,4.3,2.5v3.2c0,0.6,0.5,1.1,1.1,1.1h8.7
		c0.6,0,1.1-0.5,1.1-1.1v-3.2c1.6-0.6,2.9-1.4,4.1-2.4l2.7,1.6c0.6,0.3,1.2,0.1,1.5-0.4l4.4-7.6C60,39.2,59.8,38.5,59.3,38.2z
		 M41.4,40.8c-3.6,0-6.6-2.9-6.6-6.6c0-3.6,2.9-6.6,6.6-6.6c3.6,0,6.6,2.9,6.6,6.6C48,37.8,45,40.8,41.4,40.8z"/>
	<path class="st1" d="M46.7,59.3H28.3c-0.6,0-1.1-0.5-1.1-1.1s0.5-1.1,1.1-1.1h4.4c2.1,0.1,0.4-1.2,0-1.5c-0.4-0.3-3.9-2.8-7.2-2.8
		h-3.7c-0.6,0-1.1,0.5-1.1,1.1v10.9c0,0.6,0.5,1.1,1.1,1.1h32.8c0.6,0,1.1-0.5,1.1-1.1C55.6,61.9,51.7,60.6,46.7,59.3z"/>
	<path class="st1" d="M17.1,67V51.7c0-0.6-0.5-1.1-1.1-1.1L2,50.1c1.8,6.9,5.5,13.1,10.5,18H16C16.6,68.1,17.1,67.6,17.1,67z"/>
</g>
</svg>
