<?xml version="1.0" encoding="utf-8"?>
<!-- Generator: Adobe Illustrator 21.1.0, SVG Export Plug-In . SVG Version: 6.00 Build 0)  -->
<svg version="1.1" id="Layer_1" xmlns="http://www.w3.org/2000/svg" xmlns:xlink="http://www.w3.org/1999/xlink" x="0px" y="0px"
	 viewBox="0 0 80 80" style="enable-background:new 0 0 80 80;" xml:space="preserve">
<style type="text/css">
	.st0{fill:#FFFFFF;}
	.st1{fill:#0979BE;}
</style>
<g>
	<path class="st0" d="M40,0C17.9,0,0,17.9,0,40c0,3.6,0.5,7,1.3,10.3C3.2,57.3,7,63.6,12,68.6C19.2,75.6,29.1,80,40,80
		c22.1,0,40-17.9,40-40C80,17.9,62.1,0,40,0z"/>
	<path class="st1" d="M40,0C17.9,0,0,17.9,0,40c0,22.1,17.9,40,40,40c22.1,0,40-17.9,40-40C80,17.9,62.1,0,40,0z M19.8,26.2
		c0-4,4-6.7,7.7-6.7H53c3.8,0,6.5,2.7,6.5,6.7v1.4c-3.3,0.6-5.8,3.6-5.8,7v6H26.5l-0.1,0c-0.3,0-0.8,0-0.8,0v-6c0-3.4-2.5-6.4-5.8-7
		V26.2z M53.7,42.9v3.7c0,0.2,0,0.4,0,0.5c0,0,0,0-0.1,0H26.3c-0.3,0-0.7,0-0.7,0c0-0.1,0-0.3,0-0.5V43c0.1,0,0.3,0,0.6,0l0.1,0
		l0.3,0h26.8C53.5,42.9,53.6,42.9,53.7,42.9z M63.3,38.9c-0.4,0.2-0.9,0.6-0.9,1v9.3c0,1.7-1.1,3.2-2.7,3.9l-0.2,0.1V57
		c0,0.5-0.1,2.2-1.2,2.2H22.2c-1.1,0-2.4-1.2-2.4-2.2v-3.7l-0.2-0.1c-1.6-0.6-2.7-2.2-2.7-3.9V40l0-0.1c0-0.3,0-0.7-0.4-0.9
		c-1.6-0.8-2.5-2.3-2.5-4.3c0-2.7,2-4.8,4.7-4.8c2.6,0,4.5,2.1,4.5,4.8v12.1c0,1.4,1.7,2.8,3,2.8h27.8c1.3,0,1.9-1.4,1.9-2.8V34.6
		c0-2.6,2.3-4.8,5.1-4.8c2.7,0,4.9,2.2,4.9,4.8C65.9,36.5,64.9,38.1,63.3,38.9z"/>
</g>
</svg>
