<?xml version="1.0" encoding="utf-8"?>
<!-- Generator: Adobe Illustrator 21.1.0, SVG Export Plug-In . SVG Version: 6.00 Build 0)  -->
<svg version="1.1" id="Layer_1" xmlns="http://www.w3.org/2000/svg" xmlns:xlink="http://www.w3.org/1999/xlink" x="0px" y="0px"
	 viewBox="0 0 80 80" style="enable-background:new 0 0 80 80;" xml:space="preserve">
<style type="text/css">
	.st0{fill:#FFFFFF;}
	.st1{fill:#0979BE;}
</style>
<g>
	<path class="st0" d="M40,0.3C18.1,0.3,0.3,18.1,0.3,40c0,3.5,0.5,7,1.3,10.2c1.9,7,5.6,13.2,10.6,18.1c7.2,7,17,11.4,27.8,11.4
		c21.9,0,39.7-17.8,39.7-39.7C79.7,18.1,61.9,0.3,40,0.3z"/>
	<g>
		<circle class="st1" cx="41.4" cy="34.1" r="6.6"/>
		<path class="st1" d="M40,0.3C18.1,0.3,0.3,18.1,0.3,40c0,3.5,0.5,7,1.3,10.2l14.8,0.5c0.6,0,1.1,0.5,1.1,1.1v15.5
			c0,0.6-0.5,1.1-1.1,1.1h-4.3c7.2,7,17,11.4,27.8,11.4c21.9,0,39.7-17.8,39.7-39.7C79.7,18.1,61.9,0.3,40,0.3z M54.6,66.2H21.5
			c-0.6,0-1.1-0.5-1.1-1.1V54c0-0.6,0.5-1.1,1.1-1.1h3.7c3.3,0,6.8,2.5,7.3,2.9c0.4,0.3,2.1,1.7,0,1.6h-4.4c-0.6,0-1.1,0.5-1.1,1.1
			c0,0.6,0.5,1.1,1.1,1.1h18.6c5,1.3,9,2.6,9,5.5C55.8,65.7,55.3,66.2,54.6,66.2z M59.9,39.7l-4.4,7.7c-0.3,0.5-1,0.7-1.5,0.4
			l-2.8-1.6c-1.2,1-2.5,1.9-4.1,2.5v3.2c0,0.6-0.5,1.1-1.1,1.1h-8.8c-0.6,0-1.1-0.5-1.1-1.1v-3.2c-1.5-0.5-2.9-1.3-4.3-2.5l-2.9,1.6
			c-0.5,0.3-1.2,0.1-1.5-0.4L23,39.7c-0.3-0.5-0.1-1.2,0.4-1.5l2.8-1.6C26,35.8,26,35,26,34.1c0-0.8,0.1-1.6,0.2-2.4l-2.8-1.6
			c-0.5-0.3-0.7-1-0.4-1.5l4.4-7.7c0.3-0.5,1-0.7,1.5-0.4l2.8,1.6c1.4-1.1,2.7-1.9,4.3-2.5v-3.2c0-0.6,0.5-1.1,1.1-1.1H46
			c0.6,0,1.1,0.5,1.1,1.1v3.2c1.7,0.6,2.9,1.4,4.1,2.5l2.7-1.6c0.5-0.3,1.2-0.1,1.5,0.4l4.4,7.7c0.3,0.5,0.1,1.2-0.4,1.5l-2.8,1.6
			c0.3,1.6,0.3,3.3,0,4.9l2.8,1.6C60,38.5,60.2,39.2,59.9,39.7z"/>
	</g>
</g>
</svg>
