<?xml version="1.0" encoding="utf-8"?>
<!-- Generator: Adobe Illustrator 21.1.0, SVG Export Plug-In . SVG Version: 6.00 Build 0)  -->
<svg version="1.1" id="Layer_1" xmlns="http://www.w3.org/2000/svg" xmlns:xlink="http://www.w3.org/1999/xlink" x="0px" y="0px"
	 viewBox="0 0 80 80" style="enable-background:new 0 0 80 80;" xml:space="preserve">
<style type="text/css">
	.st0{fill:#FFFFFF;}
	.st1{fill:#0979BE;}
</style>
<g>
	<path class="st0" d="M40,0C17.9,0,0,17.9,0,40c0,3.6,0.5,7,1.3,10.3C3.2,57.3,7,63.6,12,68.6C19.2,75.6,29.1,80,40,80
		c22.1,0,40-17.9,40-40C80,17.9,62.1,0,40,0z"/>
	<path class="st1" d="M40,0C17.9,0,0,17.9,0,40c0,22.1,17.9,40,40,40s40-17.9,40-40C80,17.9,62.1,0,40,0z M47.7,14
		c0.3-0.3,0.6-0.2,0.8-0.2c0.2,0.1,0.5,0.3,0.5,0.7v31.2c-3.5-5-6-8.6-7.9-11.3c-5-7.1-5.1-7.3-5.8-8.3L47.7,14z M11.7,38.7
		c-0.4,0-0.6-0.2-0.7-0.5c-0.1-0.2-0.1-0.6,0.2-0.8l6.1-6.1c0.7,1.3,2.7,5.3,3.7,7.1l0.2,0.3H11.7z M29.6,50.8l-10-21.1
		c-0.1-0.2-0.1-0.5,0-0.7c0.1-0.2,0.4-0.4,0.6-0.4h9.4V50.8z M57.6,63.9c-0.2,0.2-0.5,0.4-0.9,0.2L32.4,55V28.6
		c1.1,0,1.3,0.1,1.4,0.3L57.6,63C57.8,63.3,57.7,63.7,57.6,63.9z M61.9,19.1L51.8,45.6V23.2l9.1-5l0,0c0.3-0.2,0.7-0.1,0.8,0.1
		C61.9,18.4,62.1,18.7,61.9,19.1z"/>
</g>
</svg>
